<?xml version="1.0" encoding="UTF-8"?>
<!DOCTYPE svg PUBLIC "-//W3C//DTD SVG 1.1//EN" "http://www.w3.org/Graphics/SVG/1.1/DTD/svg11.dtd">
<!-- Creator: CorelDRAW -->
<svg xmlns="http://www.w3.org/2000/svg" xml:space="preserve" width="56.7965mm" height="12.1361mm" version="1.1" style="shape-rendering:geometricPrecision; text-rendering:geometricPrecision; image-rendering:optimizeQuality; fill-rule:evenodd; clip-rule:evenodd"
viewBox="0 0 172.05 36.76"
 xmlns:xlink="http://www.w3.org/1999/xlink"
 xmlns:xodm="http://www.corel.com/coreldraw/odm/2003">
 <defs>
  <style type="text/css">
   <![CDATA[
    .fil0 {fill:#2B2A29;fill-rule:nonzero}
    .fil1 {fill:#2664EB;fill-rule:nonzero}
   ]]>
  </style>
 </defs>
 <g id="Слой_x0020_1">
  <metadata id="CorelCorpID_0Corel-Layer"/>
  <path class="fil0" d="M64.69 0.23l0 36.05 4.02 0 0 -32.19 1.29 0c0.41,0 0.75,0.03 1,0.08 0.26,0.05 0.45,0.16 0.59,0.33 0.14,0.17 0.24,0.39 0.31,0.64 0.07,0.26 0.1,0.59 0.1,1l0 7.83c0,0.51 -0.03,0.94 -0.08,1.26 -0.05,0.33 -0.15,0.57 -0.28,0.75 -0.14,0.17 -0.34,0.29 -0.62,0.36 -0.27,0.07 -0.62,0.1 -1.03,0.1l-1.85 0 0 3.86 1.96 0c0.38,0 0.69,0.03 0.93,0.08 0.24,0.05 0.44,0.15 0.59,0.31 0.15,0.15 0.26,0.38 0.31,0.67 0.05,0.29 0.08,0.64 0.08,1.06l0 13.85 4.02 0 0 -13.13c0,-1 -0.08,-1.84 -0.23,-2.52 -0.15,-0.69 -0.43,-1.23 -0.82,-1.62 -0.39,-0.39 -0.93,-0.67 -1.6,-0.82 -0.67,-0.15 -1.5,-0.21 -2.5,-0.18l0 0.46c0.96,0 1.79,-0.07 2.47,-0.21 0.69,-0.14 1.23,-0.4 1.62,-0.77 0.4,-0.38 0.67,-0.91 0.82,-1.6 0.15,-0.69 0.23,-1.53 0.23,-2.52l0 -7.21c0,-1.1 -0.1,-2.02 -0.31,-2.76 -0.21,-0.74 -0.54,-1.35 -1,-1.83 -0.46,-0.48 -1.06,-0.82 -1.78,-1.03 -0.72,-0.21 -1.63,-0.31 -2.73,-0.31l-5.51 0zm-11.07 24.1l0 3.71 6.13 0 0 -3.71 -6.13 0zm0.15 -24.1l-3.24 36.05 3.86 0 2.63 -34.77 -0.62 0 2.58 34.77 3.91 0 -3.24 -36.05 -5.87 0zm-14.83 0l0 36.05 4.02 0 0 -32.19 1.29 0c0.38,0 0.7,0.03 0.95,0.08 0.26,0.05 0.47,0.15 0.64,0.31 0.17,0.15 0.28,0.37 0.33,0.64 0.05,0.27 0.08,0.62 0.08,1.03l0 8.29c0,0.45 -0.03,0.82 -0.08,1.13 -0.05,0.31 -0.15,0.55 -0.31,0.72 -0.15,0.17 -0.36,0.29 -0.62,0.36 -0.26,0.07 -0.59,0.1 -1,0.1l-1.91 0 0 3.86 2.37 0c1.03,0 1.9,-0.11 2.6,-0.34 0.7,-0.22 1.27,-0.57 1.7,-1.03 0.43,-0.46 0.75,-1.07 0.95,-1.83 0.21,-0.76 0.31,-1.68 0.31,-2.78l0 -8.6c0,-1.06 -0.1,-1.97 -0.31,-2.7 -0.21,-0.74 -0.53,-1.34 -0.98,-1.8 -0.45,-0.46 -1.02,-0.8 -1.73,-1 -0.7,-0.21 -1.57,-0.31 -2.6,-0.31l-5.72 0zm-11.9 0l0.05 36.05 9.79 0 0 -3.86 -5.77 0 0 -32.19 -4.07 0zm-13.85 0l0 30.49c0,1 0.11,1.85 0.33,2.58 0.22,0.72 0.58,1.32 1.06,1.8 0.48,0.48 1.06,0.84 1.75,1.08 0.69,0.24 1.51,0.36 2.47,0.36l0.1 0c0.93,0 1.74,-0.12 2.45,-0.36 0.7,-0.24 1.29,-0.6 1.75,-1.08 0.46,-0.48 0.82,-1.08 1.06,-1.8 0.24,-0.72 0.36,-1.58 0.36,-2.58l0 -30.49 -4.02 0 0 30.54c0,0.31 -0.03,0.58 -0.1,0.82 -0.07,0.24 -0.17,0.44 -0.31,0.59 -0.14,0.15 -0.3,0.28 -0.49,0.36 -0.19,0.09 -0.42,0.13 -0.7,0.13l-0.1 0c-0.27,0 -0.51,-0.04 -0.72,-0.13 -0.21,-0.09 -0.37,-0.21 -0.49,-0.36 -0.12,-0.15 -0.21,-0.35 -0.28,-0.59 -0.07,-0.24 -0.1,-0.51 -0.1,-0.82l0 -30.54 -4.02 0zm-9.48 3.09l0 32.96 3.97 0 0.05 -32.96 -4.02 0zm-3.71 -3.09l0.05 3.86 11.33 0 0 -3.86 -11.38 0z"/>
  <path class="fil1" d="M91.53 0.26l0 3.88 -6.06 0 0 12.27 5.28 0 0 3.88 -5.28 0 0 12.32 6.32 0 0 3.88 -10.36 0 0 -36.24 10.1 0zm5.9 0l2.38 13.05 2.33 -13.05 3.88 0 -3.26 17.09 3.52 19.16 -3.99 0 -2.49 -14.5 -2.54 14.5 -3.94 0 3.47 -19.16 -3.21 -17.09 3.83 0zm16.47 0c2.07,0 3.52,0.44 4.35,1.32 0.83,0.88 1.24,2.39 1.24,4.53l0 8.7c0,2.17 -0.41,3.71 -1.24,4.61 -0.83,0.9 -2.26,1.35 -4.3,1.35l-1.81 0 0 15.74 -4.04 0 0 -36.24 5.8 0zm-0.41 16.62c0.79,0 1.32,-0.16 1.58,-0.47 0.26,-0.31 0.39,-0.93 0.39,-1.86l0 -8.34c0,-0.79 -0.14,-1.34 -0.41,-1.63 -0.28,-0.29 -0.79,-0.44 -1.55,-0.44l-1.35 0 0 12.74 1.35 0zm13.67 -16.62c2.14,0 3.64,0.45 4.5,1.35 0.86,0.9 1.29,2.43 1.29,4.61l0 7.25c0,1.55 -0.17,2.69 -0.52,3.42 -0.35,0.72 -1.02,1.23 -2.02,1.5 1,0.28 1.67,0.79 2.02,1.53 0.35,0.74 0.52,1.87 0.52,3.39l0 13.2 -4.04 0 0 -13.93c0,-0.86 -0.12,-1.43 -0.36,-1.71 -0.24,-0.28 -0.76,-0.41 -1.55,-0.41l-1.4 0 0 16.05 -4.04 0 0 -36.24 5.59 0zm-0.21 16.31c0.79,0 1.32,-0.16 1.58,-0.47 0.26,-0.31 0.39,-0.98 0.39,-2.02l0 -7.87c0,-0.79 -0.14,-1.34 -0.41,-1.63 -0.28,-0.29 -0.79,-0.44 -1.55,-0.44l-1.35 0 0 12.43 1.35 0zm18.69 -16.31l0 3.88 -6.06 0 0 12.27 5.28 0 0 3.88 -5.28 0 0 12.32 6.32 0 0 3.88 -10.36 0 0 -36.24 10.1 0zm7.56 -0.26c3.66,0 5.49,1.93 5.49,5.8l0 6.01 -3.99 0.1 0 -6.16c0,-1.24 -0.5,-1.86 -1.5,-1.86l-0.1 0c-1,0 -1.5,0.62 -1.5,1.86l0 3.73c0,0.69 0.03,1.29 0.08,1.79 0.05,0.5 0.14,0.96 0.26,1.37 0.12,0.41 0.3,0.8 0.54,1.17 0.24,0.36 0.53,0.75 0.88,1.17l2.49 2.95c0.59,0.66 1.07,1.28 1.45,1.86 0.38,0.59 0.69,1.19 0.93,1.81 0.24,0.62 0.41,1.3 0.49,2.05 0.09,0.74 0.13,1.58 0.13,2.51l0 4.76c0,3.9 -1.88,5.85 -5.64,5.85l-0.1 0c-3.76,0 -5.64,-1.95 -5.64,-5.85l0 -6.47 3.99 -0.1 0 6.63c0,1.28 0.54,1.92 1.61,1.92l0.1 0c1.1,0 1.66,-0.64 1.66,-1.92l0 -4.25c0,-1.45 -0.13,-2.6 -0.39,-3.44 -0.26,-0.85 -0.73,-1.67 -1.42,-2.46l-2.23 -2.64c-0.62,-0.72 -1.13,-1.39 -1.53,-1.99 -0.4,-0.6 -0.72,-1.23 -0.96,-1.86 -0.24,-0.64 -0.41,-1.31 -0.52,-2.02 -0.1,-0.71 -0.16,-1.51 -0.16,-2.41l0 -4.09c0,-3.87 1.83,-5.8 5.49,-5.8l0.1 0zm13.2 0c3.66,0 5.49,1.93 5.49,5.8l0 6.01 -3.99 0.1 0 -6.16c0,-1.24 -0.5,-1.86 -1.5,-1.86l-0.1 0c-1,0 -1.5,0.62 -1.5,1.86l0 3.73c0,0.69 0.03,1.29 0.08,1.79 0.05,0.5 0.14,0.96 0.26,1.37 0.12,0.41 0.3,0.8 0.54,1.17 0.24,0.36 0.53,0.75 0.88,1.17l2.49 2.95c0.59,0.66 1.07,1.28 1.45,1.86 0.38,0.59 0.69,1.19 0.93,1.81 0.24,0.62 0.41,1.3 0.49,2.05 0.09,0.74 0.13,1.58 0.13,2.51l0 4.76c0,3.9 -1.88,5.85 -5.64,5.85l-0.1 0c-3.76,0 -5.64,-1.95 -5.64,-5.85l0 -6.47 3.99 -0.1 0 6.63c0,1.28 0.54,1.92 1.61,1.92l0.1 0c1.1,0 1.66,-0.64 1.66,-1.92l0 -4.25c0,-1.45 -0.13,-2.6 -0.39,-3.44 -0.26,-0.85 -0.73,-1.67 -1.42,-2.46l-2.23 -2.64c-0.62,-0.72 -1.13,-1.39 -1.53,-1.99 -0.4,-0.6 -0.72,-1.23 -0.96,-1.86 -0.24,-0.64 -0.41,-1.31 -0.52,-2.02 -0.1,-0.71 -0.16,-1.51 -0.16,-2.41l0 -4.09c0,-3.87 1.83,-5.8 5.49,-5.8l0.1 0z"/>
 </g>
</svg>
