<?xml version="1.0" encoding="UTF-8"?>
<!DOCTYPE svg PUBLIC "-//W3C//DTD SVG 1.1//EN" "http://www.w3.org/Graphics/SVG/1.1/DTD/svg11.dtd">
<!-- Creator: CorelDRAW -->
<svg xmlns="http://www.w3.org/2000/svg" xml:space="preserve" width="56.7965mm" height="12.1361mm" version="1.1" style="shape-rendering:geometricPrecision; text-rendering:geometricPrecision; image-rendering:optimizeQuality; fill-rule:evenodd; clip-rule:evenodd"
viewBox="0 0 185.65 39.67"
 xmlns:xlink="http://www.w3.org/1999/xlink"
 xmlns:xodm="http://www.corel.com/coreldraw/odm/2003">
 <defs>
  <style type="text/css">
   <![CDATA[
    .fil0 {fill:#0D030E;fill-rule:nonzero}
    .fil1 {fill:#F5B501;fill-rule:nonzero}
   ]]>
  </style>
 </defs>
 <g id="Слой_x0020_1">
  <metadata id="CorelCorpID_0Corel-Layer"/>
  <path class="fil0" d="M69.81 0.24l0 38.9 4.34 0 0 -34.74 1.39 0c0.44,0 0.81,0.03 1.08,0.08 0.28,0.06 0.49,0.18 0.64,0.36 0.15,0.19 0.26,0.42 0.33,0.69 0.07,0.28 0.11,0.64 0.11,1.08l0 8.45c0,0.56 -0.03,1.01 -0.08,1.36 -0.06,0.35 -0.16,0.62 -0.31,0.81 -0.15,0.19 -0.37,0.31 -0.67,0.39 -0.3,0.07 -0.67,0.11 -1.11,0.11l-2 0 0 4.17 2.11 0c0.41,0 0.74,0.03 1,0.08 0.26,0.06 0.47,0.17 0.64,0.33 0.17,0.17 0.28,0.41 0.33,0.72 0.06,0.31 0.08,0.69 0.08,1.14l0 14.95 4.34 0 0 -14.17c0,-1.07 -0.08,-1.98 -0.25,-2.72 -0.17,-0.74 -0.46,-1.32 -0.89,-1.75 -0.43,-0.43 -1,-0.72 -1.72,-0.89 -0.72,-0.17 -1.62,-0.23 -2.7,-0.19l0 0.5c1.04,0 1.93,-0.07 2.67,-0.22 0.74,-0.15 1.32,-0.43 1.75,-0.83 0.43,-0.41 0.72,-0.98 0.89,-1.72 0.17,-0.74 0.25,-1.65 0.25,-2.72l0 -7.78c0,-1.19 -0.11,-2.18 -0.33,-2.97 -0.22,-0.8 -0.58,-1.45 -1.08,-1.97 -0.5,-0.52 -1.14,-0.89 -1.92,-1.11 -0.78,-0.22 -1.76,-0.33 -2.95,-0.33l-5.95 0zm-11.95 26.01l0 4 6.61 0 0 -4 -6.61 0zm0.17 -26.01l-3.5 38.9 4.17 0 2.83 -37.52 -0.67 0 2.78 37.52 4.22 0 -3.5 -38.9 -6.34 0zm-16.01 0l0 38.9 4.33 0 0 -34.74 1.39 0c0.41,0 0.75,0.03 1.03,0.08 0.28,0.06 0.51,0.17 0.69,0.33 0.19,0.17 0.31,0.4 0.36,0.69 0.06,0.3 0.08,0.67 0.08,1.11l0 8.95c0,0.48 -0.03,0.89 -0.08,1.22 -0.06,0.33 -0.17,0.59 -0.33,0.78 -0.17,0.19 -0.39,0.31 -0.67,0.39 -0.28,0.07 -0.64,0.11 -1.08,0.11l-2.06 0 0 4.17 2.56 0c1.11,0 2.05,-0.12 2.81,-0.36 0.76,-0.24 1.37,-0.61 1.83,-1.11 0.46,-0.5 0.81,-1.16 1.03,-1.97 0.22,-0.82 0.33,-1.82 0.33,-3l0 -9.28c0,-1.15 -0.11,-2.12 -0.33,-2.92 -0.22,-0.8 -0.57,-1.45 -1.06,-1.95 -0.48,-0.5 -1.1,-0.86 -1.86,-1.08 -0.76,-0.22 -1.7,-0.33 -2.81,-0.33l-6.17 0zm-12.84 0l0.06 38.9 10.56 0 0 -4.17 -6.22 0 0 -34.74 -4.39 0zm-14.95 0l0 32.9c0,1.07 0.12,2 0.36,2.78 0.24,0.78 0.62,1.43 1.14,1.95 0.52,0.52 1.15,0.91 1.89,1.17 0.74,0.26 1.63,0.39 2.67,0.39l0.11 0c1,0 1.88,-0.13 2.64,-0.39 0.76,-0.26 1.39,-0.65 1.89,-1.17 0.5,-0.52 0.88,-1.17 1.14,-1.95 0.26,-0.78 0.39,-1.7 0.39,-2.78l0 -32.9 -4.34 0 0 32.96c0,0.33 -0.04,0.63 -0.11,0.89 -0.07,0.26 -0.19,0.47 -0.33,0.64 -0.15,0.17 -0.32,0.3 -0.53,0.39 -0.2,0.09 -0.45,0.14 -0.75,0.14l-0.11 0c-0.3,0 -0.56,-0.05 -0.78,-0.14 -0.22,-0.09 -0.4,-0.22 -0.53,-0.39 -0.13,-0.17 -0.23,-0.38 -0.31,-0.64 -0.07,-0.26 -0.11,-0.56 -0.11,-0.89l0 -32.96 -4.34 0zm-10.23 3.33l0 35.57 4.28 0 0.06 -35.57 -4.34 0zm-4 -3.33l0.06 4.17 12.23 0 0 -4.17 -12.28 0z"/>
  <path class="fil1" d="M98.77 0.28l0 4.19 -6.54 0 0 13.24 5.7 0 0 4.19 -5.7 0 0 13.3 6.82 0 0 4.19 -11.17 0 0 -39.11 10.9 0zm6.37 0l2.57 14.08 2.51 -14.08 4.19 0 -3.52 18.44 3.8 20.67 -4.3 0 -2.68 -15.64 -2.74 15.64 -4.25 0 3.74 -20.67 -3.46 -18.44 4.13 0zm17.77 0c2.23,0 3.8,0.47 4.69,1.42 0.89,0.95 1.34,2.58 1.34,4.89l0 9.39c0,2.35 -0.45,4 -1.34,4.97 -0.89,0.97 -2.44,1.45 -4.64,1.45l-1.96 0 0 16.99 -4.36 0 0 -39.11 6.26 0zm-0.45 17.94c0.86,0 1.42,-0.17 1.7,-0.5 0.28,-0.34 0.42,-1.01 0.42,-2.01l0 -9c0,-0.86 -0.15,-1.44 -0.45,-1.76 -0.3,-0.32 -0.86,-0.47 -1.68,-0.47l-1.45 0 0 13.74 1.45 0zm14.75 -17.94c2.31,0 3.93,0.48 4.86,1.45 0.93,0.97 1.4,2.63 1.4,4.97l0 7.82c0,1.68 -0.19,2.91 -0.56,3.69 -0.37,0.78 -1.1,1.32 -2.18,1.62 1.08,0.3 1.81,0.85 2.18,1.65 0.37,0.8 0.56,2.02 0.56,3.66l0 14.25 -4.36 0 0 -15.03c0,-0.93 -0.13,-1.55 -0.39,-1.84 -0.26,-0.3 -0.82,-0.45 -1.68,-0.45l-1.51 0 0 17.32 -4.36 0 0 -39.11 6.03 0zm-0.22 17.6c0.86,0 1.42,-0.17 1.7,-0.5 0.28,-0.34 0.42,-1.06 0.42,-2.18l0 -8.49c0,-0.86 -0.15,-1.44 -0.45,-1.76 -0.3,-0.32 -0.86,-0.47 -1.68,-0.47l-1.45 0 0 13.41 1.45 0zm20.17 -17.6l0 4.19 -6.54 0 0 13.24 5.7 0 0 4.19 -5.7 0 0 13.3 6.82 0 0 4.19 -11.17 0 0 -39.11 10.9 0zm8.16 -0.28c3.95,0 5.92,2.09 5.92,6.26l0 6.48 -4.3 0.11 0 -6.65c0,-1.34 -0.54,-2.01 -1.62,-2.01l-0.11 0c-1.08,0 -1.62,0.67 -1.62,2.01l0 4.02c0,0.74 0.03,1.39 0.08,1.93 0.06,0.54 0.15,1.03 0.28,1.48 0.13,0.45 0.33,0.87 0.59,1.26 0.26,0.39 0.58,0.81 0.95,1.26l2.68 3.18c0.63,0.71 1.15,1.38 1.56,2.01 0.41,0.63 0.75,1.28 1.01,1.96 0.26,0.67 0.44,1.41 0.53,2.21 0.09,0.8 0.14,1.7 0.14,2.71l0 5.14c0,4.21 -2.03,6.31 -6.09,6.31l-0.11 0c-4.06,0 -6.09,-2.1 -6.09,-6.31l0 -6.98 4.3 -0.11 0 7.15c0,1.38 0.58,2.07 1.73,2.07l0.11 0c1.19,0 1.79,-0.69 1.79,-2.07l0 -4.58c0,-1.56 -0.14,-2.8 -0.42,-3.72 -0.28,-0.91 -0.79,-1.8 -1.54,-2.65l-2.4 -2.85c-0.67,-0.78 -1.22,-1.5 -1.65,-2.15 -0.43,-0.65 -0.77,-1.32 -1.03,-2.01 -0.26,-0.69 -0.45,-1.42 -0.56,-2.18 -0.11,-0.76 -0.17,-1.63 -0.17,-2.6l0 -4.41c0,-4.17 1.97,-6.26 5.92,-6.26l0.11 0zm14.25 0c3.95,0 5.92,2.09 5.92,6.26l0 6.48 -4.3 0.11 0 -6.65c0,-1.34 -0.54,-2.01 -1.62,-2.01l-0.11 0c-1.08,0 -1.62,0.67 -1.62,2.01l0 4.02c0,0.74 0.03,1.39 0.08,1.93 0.06,0.54 0.15,1.03 0.28,1.48 0.13,0.45 0.33,0.87 0.59,1.26 0.26,0.39 0.58,0.81 0.95,1.26l2.68 3.18c0.63,0.71 1.15,1.38 1.56,2.01 0.41,0.63 0.75,1.28 1.01,1.96 0.26,0.67 0.44,1.41 0.53,2.21 0.09,0.8 0.14,1.7 0.14,2.71l0 5.14c0,4.21 -2.03,6.31 -6.09,6.31l-0.11 0c-4.06,0 -6.09,-2.1 -6.09,-6.31l0 -6.98 4.3 -0.11 0 7.15c0,1.38 0.58,2.07 1.73,2.07l0.11 0c1.19,0 1.79,-0.69 1.79,-2.07l0 -4.58c0,-1.56 -0.14,-2.8 -0.42,-3.72 -0.28,-0.91 -0.79,-1.8 -1.54,-2.65l-2.4 -2.85c-0.67,-0.78 -1.22,-1.5 -1.65,-2.15 -0.43,-0.65 -0.77,-1.32 -1.03,-2.01 -0.26,-0.69 -0.45,-1.42 -0.56,-2.18 -0.11,-0.76 -0.17,-1.63 -0.17,-2.6l0 -4.41c0,-4.17 1.97,-6.26 5.92,-6.26l0.11 0z"/>
 </g>
</svg>
